<?xml version="1.0" encoding="UTF-8" standalone="no"?>
<!DOCTYPE svg PUBLIC "-//W3C//DTD SVG 1.1//EN" "http://www.w3.org/Graphics/SVG/1.1/DTD/svg11.dtd">
<svg version="1.1" xmlns="http://www.w3.org/2000/svg" xmlns:xlink="http://www.w3.org/1999/xlink" preserveAspectRatio="xMidYMid meet" viewBox="0 0 640 640" width="1920" height="1920"><defs><path d="M305.25 366.43C302.05 363.21 296.87 363.3 293.66 366.51C290.46 369.71 290.45 374.97 293.64 378.19C295.6 380.04 311.3 394.85 313.27 396.71C314.8 398.25 316.89 397.89 319.07 397.89C320.66 397.89 333.44 397.89 335.03 397.89C323.66 412.2 316.2 429.38 313.44 446.56C310.66 446.56 288.38 446.56 285.6 446.56C281.07 446.56 277.41 450.61 277.41 455.15C277.41 459.69 281.07 463.74 285.6 463.74C288.26 463.74 309.57 463.74 312.23 463.74C312.37 478.06 315.98 492.38 322.28 503.83C321.68 503.83 316.93 503.83 316.34 503.83C314.16 503.83 312.07 505.08 310.53 506.63C308.57 508.62 292.87 524.58 290.91 526.57C287.72 529.79 287.72 535.09 290.93 538.3C292.53 539.9 294.62 540.74 296.71 540.74C298.81 540.74 300.91 539.95 302.51 538.34C303.66 537.18 309.4 531.41 319.74 521.01C327.68 521.01 332.09 521.01 332.97 521.01C349.09 541.05 374.4 554.07 400.08 555.53C400.08 544.06 400.08 486.74 400.08 383.57L322.47 383.57C312.14 373.28 306.4 367.57 305.25 366.43Z" id="ciIfVdM4s"></path><path d="M497.55 446.63C494.01 429.45 484.9 412.27 474.22 397.95C476.05 397.95 490.67 397.95 492.49 397.95C494.67 397.95 496.76 398.34 498.3 396.79C500.26 394.88 515.96 379.58 517.92 377.67C521.11 374.45 521.11 369.56 517.9 366.35C514.69 363.14 509.51 363.11 506.31 366.33C505.17 367.48 499.43 373.25 489.09 383.63L411.49 383.63C411.49 486.77 411.49 544.07 411.49 555.53C437.16 553.85 462.02 538.25 478.14 521.07C479.05 521.07 483.61 521.07 491.82 521.07C502.16 531.48 507.9 537.27 509.05 538.42C510.65 540.03 512.75 540.85 514.85 540.85C516.94 540.85 519.03 540.05 520.63 538.45C523.84 535.24 523.84 530.04 520.65 526.82C518.69 524.81 502.99 508.7 501.03 506.69C499.49 505.14 497.4 503.89 495.23 503.89C494.6 503.89 489.58 503.89 488.95 503.89C495.32 492.44 498.98 478.12 499.13 463.81C501.81 463.81 523.28 463.81 525.96 463.81C530.49 463.81 534.16 459.76 534.16 455.22C534.16 450.67 530.49 446.63 525.96 446.63C520.28 446.63 500.39 446.63 497.55 446.63Z" id="aiSY3MIrt"></path><path d="M458.78 372.12C458.78 352.07 448.88 337 434 327.58C435.07 326.52 443.63 318.11 444.7 317.06C447.9 313.85 447.9 308.75 444.7 305.54C441.5 302.33 436.31 302.38 433.11 305.59C431.56 307.15 419.19 319.6 417.64 321.15C413.82 320.28 409.86 319.78 405.78 319.78C401.7 319.78 397.74 320.3 393.92 321.17C392.37 319.62 379.99 307.2 378.44 305.65C375.24 302.44 370.06 302.44 366.86 305.65C363.65 308.85 363.65 314.07 366.86 317.28C367.92 318.31 376.48 326.55 377.55 327.58C362.69 337 352.78 352.07 352.78 372.12C373.98 372.12 448.18 372.12 458.78 372.12Z" id="b6L24btp"></path><path d="M88.89 214.53C88.89 354.17 88.89 431.74 88.89 447.26C88.89 479.39 180.06 505.44 292.53 505.44C292.53 505.44 297.19 505.44 297.19 505.44C297.51 505.44 297.2 504.62 296.26 502.99C291.5 494.76 289 485.43 289 475.92C289 475.92 289 475.92 289 475.92C192.6 475.92 117.98 463.33 117.98 447.27C117.98 426.98 117.98 264.65 117.98 244.36C99.03 235.35 88.98 225.04 88.89 214.53" id="a17Ka10ILL"></path><path d="M88.74 214.38C88.74 262.58 179.91 301.65 292.38 301.65C404.84 301.65 496.01 262.58 496.01 214.38C493.1 214.38 469.83 214.38 466.92 214.38C466.92 246.51 388.77 272.56 292.38 272.56C195.98 272.56 117.83 246.51 117.83 214.38C115.89 214.38 106.19 214.38 88.74 214.38" id="aikLCkrBm"></path><path d="M292.38 39.83C179.91 39.83 88.74 117.98 88.74 214.38C91.65 214.38 114.92 214.38 117.83 214.38C117.83 134.05 195.98 68.92 292.38 68.92C388.77 68.92 466.92 134.05 466.92 214.38C469.83 214.38 493.1 214.38 496.01 214.38C496.01 117.98 404.84 39.83 292.38 39.83" id="bnAaZAIK8"></path><path d="M292.38 39.83C281.83 39.87 271.31 40.61 260.9 42.05C208.59 85.01 182.99 163.03 177.18 228.92C209 238.28 249.95 243.45 292.38 243.47C302.85 155.88 338.57 99.18 370.51 53.24C345.75 44.41 319.2 39.85 292.38 39.83" id="j1t2RK7cdi"></path><path d="M496.01 359.15C496.01 359.15 496.01 214.64 496.01 203.63C495.92 213.99 485.87 224.14 466.92 233.02C466.92 241.41 466.92 322.12 466.92 359.15" id="aUesh41FF"></path></defs><g><g><g><g><use xlink:href="#ciIfVdM4s" opacity="1" fill="#000000" fill-opacity="1"></use><g><use xlink:href="#ciIfVdM4s" opacity="1" fill-opacity="0" stroke="#000000" stroke-width="1" stroke-opacity="0"></use></g></g><g><use xlink:href="#aiSY3MIrt" opacity="1" fill="#000000" fill-opacity="1"></use><g><use xlink:href="#aiSY3MIrt" opacity="1" fill-opacity="0" stroke="#000000" stroke-width="1" stroke-opacity="0"></use></g></g><g><use xlink:href="#b6L24btp" opacity="1" fill="#000000" fill-opacity="1"></use><g><use xlink:href="#b6L24btp" opacity="1" fill-opacity="0" stroke="#000000" stroke-width="1" stroke-opacity="0"></use></g></g></g><g><g><use xlink:href="#a17Ka10ILL" opacity="1" fill="#000000" fill-opacity="1"></use><g><use xlink:href="#a17Ka10ILL" opacity="1" fill-opacity="0" stroke="#000000" stroke-width="1" stroke-opacity="0"></use></g></g><g><use xlink:href="#aikLCkrBm" opacity="1" fill="#000000" fill-opacity="1"></use><g><use xlink:href="#aikLCkrBm" opacity="1" fill-opacity="0" stroke="#000000" stroke-width="1" stroke-opacity="0"></use></g></g><g><use xlink:href="#bnAaZAIK8" opacity="1" fill="#000000" fill-opacity="1"></use><g><use xlink:href="#bnAaZAIK8" opacity="1" fill-opacity="0" stroke="#000000" stroke-width="1" stroke-opacity="0"></use></g></g><g><use xlink:href="#j1t2RK7cdi" opacity="1" fill="#000000" fill-opacity="1"></use><g><use xlink:href="#j1t2RK7cdi" opacity="1" fill-opacity="0" stroke="#000000" stroke-width="1" stroke-opacity="0"></use></g></g></g><g><use xlink:href="#aUesh41FF" opacity="1" fill="#000000" fill-opacity="1"></use><g><use xlink:href="#aUesh41FF" opacity="1" fill-opacity="0" stroke="#000000" stroke-width="1" stroke-opacity="0"></use></g></g></g></g></svg>